<svg xmlns="http://www.w3.org/2000/svg" viewBox="0 0 512 512"><path d="M333.477 272.749a94.62 94.62 0 0 1 32.77 5.788 32.128 32.128 0 0 0 24.212-1.063 55.687 55.687 0 0 1 23.109-4.743 58.592 58.592 0 0 1 24.726 4.6 31.666 31.666 0 0 0 24.452.6c11.327-6.123 25.632.816 25.684 14.231V326.1H333.477zM256 185.813a65.772 65.772 0 0 1 29.243 4.647 28.684 28.684 0 0 0 21.856-.471 55.516 55.516 0 0 1 7.56-2.62 15.045 15.045 0 0 1 18.818 14.611v39.65H256z" style="fill:#778591"/><path style="fill:#ff7b69" d="M23.57 397.15h154.953v91.28H23.57zM178.524 397.15h154.953v91.28H178.524zM23.57 214.59h154.953v91.28H23.57zM333.477 305.87H178.524v-91.28h135.183a19.77 19.77 0 0 1 19.77 19.77zM333.477 397.15H488.43v91.28H333.477z"/><path style="fill:#d85656" d="M23.57 305.87h77.477v91.28H23.57z"/><path style="fill:#ff7b69" d="M101.047 305.87H256v91.28H101.047zM23.57 123.31h77.477v91.28H23.57zM256 214.59H101.047v-91.28h134.887A20.066 20.066 0 0 1 256 143.377z"/><rect x="333.477" y="23.57" width="154.953" height="91.28" rx="19.003" style="fill:#ff7b69"/><path style="fill:#ff7b69" d="M256 305.87h154.953v91.28H256zM488.43 397.15h-77.477v-91.28h57.889a19.588 19.588 0 0 1 19.588 19.588z"/><path d="M484.9 273.974c-7.2-5.35-16.421-5.15-24.307-1.45a26.012 26.012 0 0 1-19.961-.524 64.669 64.669 0 0 0-27.234-5.085 61.422 61.422 0 0 0-25.337 5.26 26.2 26.2 0 0 1-19.829.895 102.433 102.433 0 0 0-9.814-3.006c-7.445-1.7-10.276 9.208-2.849 11.287a90.253 90.253 0 0 1 8.692 2.662 37.8 37.8 0 0 0 28.595-1.231 56.111 56.111 0 0 1 43.1-.123c10.6 4.81 22.3 3.9 32.517-.64 6.652-2.5 14.359 3.044 14.138 10.146v10.79a22.567 22.567 0 0 0-11.075-2.9H339.3c.042-7.327-.03-62.964 0-68.564v-29.512a20.827 20.827 0 0 0-8.209-16.636c-17.318-12.452-26.759 6.542-43.705-.3-5.221-1.689-14.076-6.624-16.486 1.221a5.818 5.818 0 0 0 4.241 7.053 63.365 63.365 0 0 1 7.965 2.551 34.739 34.739 0 0 0 26.3-.536 49.69 49.69 0 0 1 6.765-2.344c5.613-1.667 11.664 3.171 11.493 8.988v9.692a22.558 22.558 0 0 0-11.076-2.9H261.82v-68.562a22.741 22.741 0 0 0-22.715-22.716c-49.248.024-167.526-.017-215.535 0a5.82 5.82 0 0 0-5.82 5.82v91.28c.044 81.315-.032 192.531 0 273.84a5.82 5.82 0 0 0 5.82 5.82c77.271-.077 232.663.056 309.908 0H488.43a5.82 5.82 0 0 0 5.82-5.82c-.377-41.894.272-124.215 0-165.664v-30.605a22.116 22.116 0 0 0-9.35-18.187zM106.867 129.13h132.238a11.089 11.089 0 0 1 11.075 11.076v68.564H106.867zM250.18 311.69v79.639H106.867V311.69zM29.39 129.13h65.837v79.64H29.39zm0 91.281H172.7v79.639H29.39zm298.267 262.2H184.344v-56.053a5.821 5.821 0 0 0-11.641 0v56.052H29.39v-79.64H72.9a5.821 5.821 0 0 0 0-11.641H29.39V311.69h65.837v85.46a5.82 5.82 0 0 0 5.82 5.82h226.61zm-65.837-91.282V305.87a5.82 5.82 0 0 0-5.82-5.82h-71.656v-79.639c32.9.016 99.6-.012 132.237 0a11.088 11.088 0 0 1 11.076 11.075c-.038 5.275.027 61.682 0 68.564H284.9a5.82 5.82 0 0 0 0 11.64c28.375.006 91.38 0 120.229 0v79.639zm220.79 91.281H339.3v-79.64h143.31zm0-156.514v65.233h-65.836V311.69h54.761a11.089 11.089 0 0 1 11.075 11.076z" style="fill:#333"/><path d="M223.549 154.288c6.49 4.1 12.734-5.265 6.46-9.676-6.48-4.112-12.731 5.261-6.46 9.676zM223.549 178.253c6.489 4.1 12.736-5.279 6.46-9.677-6.487-4.108-12.728 5.258-6.46 9.677zM57.657 253.712c-2.367-5.835-11.223-4.05-11.189 2.226.605 9.233 14.191 6.524 11.189-2.226zM52.288 274.068c-7.675.2-7.668 11.461 0 11.641 7.671-.196 7.672-11.433 0-11.641zM231.93 359.452c-5.853-3.8-12.214 3.956-7.348 8.948 6.186 5.707 14.147-3.986 7.348-8.948zM225.47 345.163c5.832 3.8 12.208-3.98 7.333-8.949-6.234-5.701-14.164 3.965-7.333 8.949zM465.4 332.576c-6.518-4.072-12.724 5.26-6.461 9.691 6.504 4.066 12.716-5.248 6.461-9.691zM367.149 459.3c-5.8-3.826-12.209 4-7.348 8.949 6.252 5.687 14.164-3.973 7.348-8.949zM201.839 345.163c5.849 3.794 12.208-3.961 7.348-8.949-6.24-5.7-14.15 3.947-7.348 8.949zM53.292 438.505c-2.37-5.81-11.21-4.062-11.189 2.226.602 9.244 14.197 6.53 11.189-2.226zM51.153 459.851c-5.78-3.825-12.231 4.027-7.348 8.948 6.235 5.701 14.155-3.953 7.348-8.948zM70.4 458.978c-6.807 1.459-5.833 11.44 1.136 11.524 8.434-.332 7.189-12.816-1.136-11.524zM469.789 69.589c-4.114-8.3-15.6-.622-9.5 6.344 4.454 4.441 11.897-.524 9.5-6.344zM469.789 45.623c-3.144-7-13.517-2.7-10.752 4.468 3.131 7.016 13.491 2.699 10.752-4.468zM444.02 43.019c-6.486-4.109-12.733 5.269-6.46 9.677 6.488 4.104 12.731-5.263 6.46-9.677z" style="fill:#333"/><path d="M471.535 17.75H350.372a22.741 22.741 0 0 0-22.715 22.715v57.489a22.741 22.741 0 0 0 22.715 22.716h121.163a22.741 22.741 0 0 0 22.715-22.716V40.465a22.741 22.741 0 0 0-22.715-22.715zm11.075 80.2a11.088 11.088 0 0 1-11.075 11.075H350.372A11.088 11.088 0 0 1 339.3 97.954V40.465a11.089 11.089 0 0 1 11.072-11.075h121.163a11.089 11.089 0 0 1 11.075 11.075z" style="fill:#333"/></svg>