<svg version="1.1" id="Icon_Set" xmlns="http://www.w3.org/2000/svg" x="0" y="0" viewBox="0 0 512 512" style="enable-background:new 0 0 512 512" xml:space="preserve"><style>.st0{fill:#4c4372}.st2{fill:#fd919e}.st3{fill:#e8677d}.st4{fill:#d3e6f8}.st5{fill:#a4cff2}.st6{fill:#7babf1}</style><circle cx="256" cy="256" r="207" style="fill:#f0c48a"/><path class="st5" d="M23.964 267.15c-9.956 0-18.102-8.146-18.102-18.103V123.462c0-9.956 8.146-18.103 18.102-18.103s18.102 8.146 18.102 18.103v125.585c0 9.957-8.145 18.103-18.102 18.103z"/><path class="st6" d="M23.964 105.359V267.15c9.956 0 18.102-8.146 18.102-18.102V123.463c0-9.957-8.145-18.104-18.102-18.104z"/><path class="st2" d="M81.069 239.026h373.349v34.063H81.069z"/><path class="st3" d="M394.302 239.026h30.142v34.063h-30.142zM138.691 239.026h30.142v34.063h-30.142z"/><path class="st6" d="M42.066 172.389h39.003v27.732H42.066zM484.096 316.666h-29.678V195.45h29.678c12.173 0 22.041 9.868 22.041 22.041v77.134c0 12.172-9.868 22.041-22.041 22.041z"/><path class="st0" d="M454.418 278.951H81.069a5.863 5.863 0 0 1-5.862-5.862v-34.062a5.863 5.863 0 0 1 5.862-5.863h373.349a5.863 5.863 0 0 1 5.862 5.863v34.062a5.863 5.863 0 0 1-5.862 5.862zM86.932 267.227h361.623v-22.338H86.932v22.338z"/><path class="st2" d="M439.431 429.926c8.277 0 14.987-6.709 14.987-14.986V139.441c0-8.277-6.71-14.987-14.987-14.987-8.277 0-14.987 6.71-14.987 14.987V414.94c0 8.277 6.71 14.986 14.987 14.986zM96.057 429.926c8.277 0 14.987-6.709 14.987-14.986V139.441c0-8.277-6.71-14.987-14.987-14.987-8.277 0-14.987 6.71-14.987 14.987V414.94c-.001 8.277 6.709 14.986 14.987 14.986z"/><path class="st0" d="M23.964 273.012C10.75 273.012 0 262.262 0 249.048V123.462c0-13.214 10.75-23.965 23.964-23.965 13.214 0 23.965 10.751 23.965 23.965v125.586c0 13.214-10.75 23.964-23.965 23.964zm0-161.789c-6.749 0-12.239 5.49-12.239 12.239v125.586c0 6.749 5.49 12.239 12.239 12.239 6.749 0 12.24-5.49 12.24-12.239V123.462c0-6.749-5.491-12.239-12.24-12.239zM439.431 435.788c-11.496 0-20.849-9.353-20.849-20.849V139.441c0-11.496 9.353-20.85 20.849-20.85s20.85 9.354 20.85 20.85V414.94c-.001 11.495-9.354 20.848-20.85 20.848zm0-305.472c-5.031 0-9.124 4.093-9.124 9.125V414.94c0 5.031 4.093 9.124 9.124 9.124 5.031 0 9.125-4.093 9.125-9.124V139.441c-.001-5.032-4.094-9.125-9.125-9.125zM96.057 435.788c-11.496 0-20.85-9.353-20.85-20.849V139.441c0-11.496 9.353-20.85 20.85-20.85 11.496 0 20.849 9.354 20.849 20.85V414.94c0 11.495-9.353 20.848-20.849 20.848zm0-305.472c-5.032 0-9.125 4.093-9.125 9.125V414.94c0 5.031 4.093 9.124 9.125 9.124 5.031 0 9.124-4.093 9.124-9.124V139.441c0-5.032-4.094-9.125-9.124-9.125z"/><path class="st0" d="M81.069 205.984H42.066a5.863 5.863 0 0 1-5.862-5.863v-27.732a5.863 5.863 0 0 1 5.862-5.863h39.003a5.863 5.863 0 0 1 5.863 5.863v27.732a5.863 5.863 0 0 1-5.863 5.863zm-33.14-11.725h27.278v-16.007H47.929v16.007zM484.096 322.527h-29.678a5.863 5.863 0 0 1-5.863-5.861V195.45a5.863 5.863 0 0 1 5.863-5.862h29.678c15.386 0 27.904 12.518 27.904 27.903v77.134c0 15.386-12.518 27.902-27.904 27.902zm-23.816-11.724h23.816c8.921 0 16.178-7.258 16.178-16.178v-77.134c0-8.921-7.257-16.178-16.178-16.178H460.28v109.49z"/><circle class="st6" cx="95.814" cy="434.889" r="38.596"/><circle class="st6" cx="439.431" cy="434.889" r="38.596"/><path class="st0" d="M95.814 479.348c-24.515 0-44.459-19.945-44.459-44.459 0-24.514 19.944-44.459 44.459-44.459 24.515 0 44.458 19.945 44.458 44.459 0 24.513-19.943 44.459-44.458 44.459zm0-77.194c-18.049 0-32.733 14.685-32.733 32.734s14.684 32.733 32.733 32.733 32.733-14.684 32.733-32.733-14.684-32.734-32.733-32.734z"/><circle class="st0" cx="95.814" cy="434.889" r="14.068"/><path class="st0" d="M439.431 479.348c-24.515 0-44.458-19.945-44.458-44.459 0-24.514 19.944-44.459 44.458-44.459 24.515 0 44.459 19.945 44.459 44.459 0 24.513-19.945 44.459-44.459 44.459zm0-77.194c-18.049 0-32.733 14.685-32.733 32.734s14.684 32.733 32.733 32.733c18.05 0 32.734-14.684 32.734-32.733s-14.685-32.734-32.734-32.734z"/><circle class="st0" cx="439.431" cy="434.889" r="14.068"/><path class="st5" d="M330.374 73.807h-125.26c-9.745 0-17.645-7.9-17.645-17.646 0-9.744 7.9-17.645 17.645-17.645h125.26c9.745 0 17.646 7.9 17.646 17.645-.001 9.745-7.901 17.646-17.646 17.646z"/><path class="st6" d="M330.374 38.516h-25.188v35.291h25.188c9.745 0 17.646-7.9 17.646-17.646-.001-9.745-7.901-17.645-17.646-17.645z"/><path class="st4" d="M366.654 151.252H168.833l46.283-77.445h105.255z"/><path class="st5" d="m336.331 151.252-44.823-77.445h28.863l46.283 77.445z"/><path class="st4" d="M330.344 383.159h-125.2c-20.054 0-36.311-16.257-36.311-36.311V151.252h197.821v195.597c0 20.053-16.257 36.31-36.31 36.31z"/><path class="st5" d="M336.331 151.252v231.407c17.204-2.855 30.324-17.798 30.324-35.811V151.252h-30.324z"/><path class="st0" d="M330.343 389.022H205.144c-23.254 0-42.173-18.918-42.173-42.174V151.252a5.863 5.863 0 0 1 5.862-5.863h197.821a5.863 5.863 0 0 1 5.863 5.863v195.596c0 23.255-18.919 42.174-42.174 42.174zM174.696 157.114v189.733c0 16.789 13.659 30.449 30.448 30.449h125.199c16.789 0 30.448-13.66 30.448-30.449V157.114H174.696z"/><path class="st0" d="M366.654 157.114H168.833a5.863 5.863 0 0 1-5.032-8.87l46.283-77.445a5.861 5.861 0 0 1 5.032-2.855h105.255a5.861 5.861 0 0 1 5.032 2.855l46.283 77.445a5.863 5.863 0 0 1-5.032 8.87zm-187.487-11.725H356.32l-39.276-65.72h-98.602l-39.275 65.72z"/><path class="st0" d="M330.374 79.669H205.113c-12.962 0-23.508-10.546-23.508-23.509 0-12.961 10.545-23.508 23.508-23.508h125.261c12.962 0 23.507 10.547 23.507 23.508 0 12.963-10.545 23.509-23.507 23.509zM205.113 44.378c-6.497 0-11.782 5.285-11.782 11.782s5.286 11.783 11.782 11.783h125.261c6.497 0 11.782-5.286 11.782-11.783s-5.286-11.782-11.782-11.782H205.113z"/><path class="st5" d="M376.657 186.543H158.83c-9.745 0-17.645-7.9-17.645-17.645s7.9-17.646 17.645-17.646h217.827c9.746 0 17.645 7.9 17.645 17.646 0 9.745-7.9 17.645-17.645 17.645z"/><path class="st6" d="M376.68 151.252h-47.599v35.291h47.599c9.745 0 17.645-7.9 17.645-17.645 0-9.746-7.9-17.646-17.645-17.646z"/><path class="st0" d="M376.657 192.405H158.831c-12.962 0-23.508-10.546-23.508-23.507 0-12.963 10.546-23.51 23.508-23.51h217.826c12.962 0 23.508 10.547 23.508 23.51 0 12.961-10.546 23.507-23.508 23.507zm-217.826-35.291c-6.498 0-11.783 5.286-11.783 11.784 0 6.497 5.286 11.781 11.783 11.781h217.826c6.497 0 11.783-5.284 11.783-11.781 0-6.498-5.286-11.784-11.783-11.784H158.831z"/></svg>