<svg version="1.1" id="Icon_Set" xmlns="http://www.w3.org/2000/svg" x="0" y="0" viewBox="0 0 512 512" style="enable-background:new 0 0 512 512" xml:space="preserve"><style>.st0{fill:#4c4372}.st3{fill:#e8677d}.st6{fill:#7babf1}</style><circle cx="256" cy="256" r="207" style="fill:#f0c48a"/><path style="fill:#fd919e" d="m475.076 189.054-29.101-50.405h-73.114l-26.208-45.394H236.035l-55.31 95.799z"/><path class="st3" d="m311.511 93.255 54.419 95.799h35.364l-54.641-95.799zM445.975 138.649h-33.343l25.547 50.405h36.897z"/><path style="fill:#d3e6f8" d="M506.137 189.054H132.58v33.601l93.389 122.62h186.779l93.389-122.62z"/><path style="fill:#a4cff2" d="m412.748 345.275 93.389-122.62v-33.601h-52.288v33.601h13.12l-96.748 122.62z"/><path class="st6" d="M221.416 418.745h-31.147l-13.046-60.426h57.238z"/><path class="st0" d="M412.748 351.137H225.969a5.86 5.86 0 0 1-4.665-2.311l-93.389-122.62a5.866 5.866 0 0 1-1.198-3.552v-33.601a5.863 5.863 0 0 1 5.862-5.863h373.558a5.863 5.863 0 0 1 5.863 5.863v33.601a5.866 5.866 0 0 1-1.198 3.552l-93.39 122.62a5.86 5.86 0 0 1-4.664 2.311zm-183.875-11.725h180.971l90.431-118.736v-25.76H138.442v25.76l90.431 118.736z"/><path class="st0" d="M506.137 228.517H132.58a5.863 5.863 0 0 1 0-11.726h373.558a5.863 5.863 0 1 1-.001 11.726zM475.076 194.917H180.725a5.862 5.862 0 0 1-5.077-8.794l55.31-95.799a5.862 5.862 0 0 1 5.077-2.931h110.619a5.862 5.862 0 0 1 5.077 2.931l24.515 42.462h69.729a5.86 5.86 0 0 1 5.077 2.931l29.102 50.405a5.865 5.865 0 0 1-5.078 8.795zM190.88 183.191h274.042l-22.332-38.68h-69.729a5.866 5.866 0 0 1-5.078-2.931l-24.515-42.462H239.419l-48.539 84.073zM221.416 424.607h-31.147a5.862 5.862 0 0 1-5.73-4.625l-13.045-60.425a5.862 5.862 0 0 1 5.73-7.099h57.238a5.861 5.861 0 0 1 5.73 7.099l-13.045 60.425a5.863 5.863 0 0 1-5.731 4.625zM195 412.882h21.684l10.514-48.7h-42.712l10.514 48.7z"/><circle class="st6" cx="393.164" cy="344.939" r="73.805"/><path class="st0" d="M393.164 424.607c-43.929 0-79.668-35.739-79.668-79.668 0-43.929 35.739-79.668 79.668-79.668s79.668 35.739 79.668 79.668c0 43.929-35.739 79.668-79.668 79.668zm0-147.61c-37.464 0-67.943 30.479-67.943 67.942 0 37.464 30.479 67.943 67.943 67.943s67.943-30.479 67.943-67.943c-.001-37.463-30.48-67.942-67.943-67.942z"/><circle cx="393.164" cy="344.939" r="34.851" style="fill:#fff"/><path class="st0" d="M393.164 385.653c-22.45 0-40.713-18.264-40.713-40.713 0-22.45 18.264-40.713 40.713-40.713s40.713 18.264 40.713 40.713-18.264 40.713-40.713 40.713zm0-69.702c-15.984 0-28.988 13.004-28.988 28.988s13.003 28.988 28.988 28.988c15.984 0 28.988-13.004 28.988-28.988-.001-15.983-13.004-28.988-28.988-28.988z"/><path class="st6" d="M175.644 358.319c-3.884 0-7.566-1.73-10.045-4.722L67.902 235.7H18.908c-7.205 0-13.045-5.841-13.045-13.045 0-7.205 5.84-13.045 13.045-13.045h55.126c3.884 0 7.567 1.731 10.044 4.721l97.69 117.889 211.375-.326h.021c7.195 0 13.034 5.827 13.044 13.025.011 7.205-5.82 13.055-13.025 13.065l-217.52.335h-.019z"/><path class="st0" d="M175.674 364.182h-.029a18.853 18.853 0 0 1-14.559-6.844l-95.94-115.775H18.908C8.482 241.563 0 233.081 0 222.655s8.482-18.908 18.908-18.908h55.126a18.85 18.85 0 0 1 14.559 6.844l95.928 115.763 208.614-.321c10.439 0 18.921 8.469 18.936 18.879.016 10.426-8.453 18.921-18.878 18.937l-217.519.333zM18.908 215.472c-3.96 0-7.183 3.222-7.183 7.183 0 3.96 3.222 7.183 7.183 7.183h48.995c1.746 0 3.4.778 4.514 2.122l97.698 117.898a7.16 7.16 0 0 0 5.53 2.6h.02l217.51-.335c3.961-.006 7.178-3.233 7.171-7.194-.006-3.954-3.227-7.171-7.182-7.171l-211.387.326h-.009c-1.746 0-3.4-.778-4.514-2.122l-97.69-117.889a7.162 7.162 0 0 0-5.53-2.6H18.908z"/><g><path class="st0" d="M401.299 194.917a5.86 5.86 0 0 1-5.111-2.983l-28.433-50.405a5.862 5.862 0 0 1 2.226-7.986 5.862 5.862 0 0 1 7.987 2.226l28.433 50.405a5.862 5.862 0 0 1-5.102 8.743z"/></g></svg>