<svg version="1.1" id="Icon_Set" xmlns="http://www.w3.org/2000/svg" x="0" y="0" viewBox="0 0 512 512" style="enable-background:new 0 0 512 512" xml:space="preserve"><style>.st0{fill:#4c4372}.st2{fill:#fd919e}.st3{fill:#e8677d}.st4{fill:#d3e6f8}.st5{fill:#a4cff2}.st6{fill:#7babf1}</style><circle cx="256" cy="256" r="207" style="fill:#f0c48a"/><path class="st2" d="M371.833 127.257H89.465v84.794c0 12.995 10.535 23.53 23.53 23.53 12.995 0 23.53-10.535 23.53-23.53v-11.755c0-12.996 10.535-23.531 23.531-23.531 12.996 0 23.531 10.535 23.531 23.531v17.637c0 12.996 10.534 23.531 23.53 23.531 12.995 0 23.53-10.535 23.53-23.531 0-12.45 10.093-22.542 22.543-22.542h.988c12.995 0 23.53 10.535 23.53 23.531v.972c0 12.996 10.535 23.531 23.53 23.531h.001c12.995 0 23.53-10.535 23.53-23.531v-19.597c0-12.996 10.535-23.531 23.531-23.531 12.996 0 23.53 10.535 23.53 23.531v50.966c0 12.996 10.535 23.531 23.531 23.531 12.995 0 23.53-10.535 23.53-23.531V127.257h-47.058z"/><path class="st3" d="M398.825 274.537c11.355-1.674 20.07-11.456 20.07-23.275V127.257h-20.07v147.28z"/><path class="st4" d="M228.324 385.378h49.752v120.759h-49.752z"/><path class="st4" d="M228.324 385.378h49.752v120.759h-49.752z"/><path class="st5" d="M258.291 385.378h19.785v120.759h-19.785z"/><path class="st6" d="M228.324 475.428h49.752v30.709h-49.752z"/><path class="st4" d="M278.077 338.37h-49.754v20.564l12.439 26.444h24.876l12.439-26.444z"/><path class="st5" d="m265.638 385.378 12.439-26.444V338.37h-19.786v47.008z"/><path class="st2" d="M414.109 127.257H92.29c-14.976 0-27.116-12.14-27.116-27.116V32.979c0-14.976 12.141-27.116 27.116-27.116h321.818c14.976 0 27.116 12.141 27.116 27.116v67.163c.001 14.975-12.14 27.115-27.115 27.115z"/><path class="st3" d="M441.225 100.141V85.419H65.174v14.722c0 14.976 12.141 27.116 27.116 27.116h321.818c14.976 0 27.117-12.14 27.117-27.116z"/><path class="st6" d="M46.316 85.419h18.858V47.701H46.316c-10.416 0-18.859 8.443-18.859 18.859 0 10.416 8.443 18.859 18.859 18.859z"/><path class="st0" d="M395.365 280.655c-16.208 0-29.394-13.186-29.394-29.394v-50.966c0-9.742-7.926-17.668-17.668-17.668-9.742 0-17.668 7.926-17.668 17.668v19.597c0 16.208-13.187 29.393-29.395 29.393-16.207 0-29.393-13.186-29.393-29.393v-.972c0-9.742-7.926-17.668-17.668-17.668h-.988c-9.198 0-16.68 7.482-16.68 16.68 0 16.208-13.186 29.393-29.393 29.393-16.209 0-29.395-13.186-29.395-29.393v-17.637c0-9.742-7.926-17.668-17.668-17.668-9.742 0-17.668 7.926-17.668 17.668v11.755c0 16.207-13.186 29.393-29.393 29.393-16.209 0-29.395-13.186-29.395-29.393v-84.793a5.863 5.863 0 0 1 5.862-5.863h329.431a5.863 5.863 0 0 1 5.862 5.863v124.004c.003 16.208-13.182 29.394-29.389 29.394zm-47.062-109.753c16.207 0 29.394 13.186 29.394 29.393v50.966c0 9.742 7.925 17.668 17.668 17.668 9.742 0 17.668-7.926 17.668-17.668V133.12H95.327v78.931c0 9.742 7.927 17.668 17.67 17.668 9.742 0 17.668-7.926 17.668-17.668v-11.755c0-16.207 13.186-29.393 29.393-29.393s29.393 13.186 29.393 29.393v17.637c0 9.742 7.926 17.668 17.668 17.668s17.67-7.926 17.67-17.668c0-15.663 12.742-28.405 28.404-28.405h.988c16.207 0 29.393 13.186 29.393 29.393v.972c0 9.742 7.926 17.668 17.668 17.668 9.743 0 17.668-7.926 17.668-17.668v-19.597c-.001-16.208 13.185-29.394 29.393-29.394z"/><path class="st0" d="M414.108 133.12H92.29c-18.185 0-32.979-14.793-32.979-32.979V32.979C59.312 14.794 74.106 0 92.29 0h321.817c18.186 0 32.979 14.794 32.979 32.979v67.163c.001 18.184-14.793 32.978-32.978 32.978zM92.29 11.725c-11.719 0-21.253 9.535-21.253 21.253v67.163c0 11.719 9.534 21.253 21.253 21.253h321.817c11.72 0 21.255-9.534 21.255-21.253V32.979c0-11.719-9.535-21.253-21.255-21.253H92.29z"/><path class="st0" d="M65.174 91.281H46.316c-13.632 0-24.723-11.09-24.723-24.721 0-13.632 11.091-24.722 24.723-24.722h18.858a5.863 5.863 0 0 1 5.863 5.862v37.719a5.862 5.862 0 0 1-5.863 5.862zM46.316 53.563c-7.167 0-12.997 5.83-12.997 12.997s5.83 12.997 12.997 12.997h12.996V53.563H46.316zM278.077 512h-49.754a5.863 5.863 0 0 1-5.862-5.862v-120.76a5.863 5.863 0 0 1 5.862-5.863h49.754a5.863 5.863 0 0 1 5.862 5.863v120.759a5.863 5.863 0 0 1-5.862 5.863zm-43.891-11.725h38.027V391.241h-38.027v109.034z"/><path class="st0" d="M278.077 512h-49.754a5.863 5.863 0 0 1-5.862-5.862v-120.76a5.863 5.863 0 0 1 5.862-5.863h49.754a5.863 5.863 0 0 1 5.862 5.863v120.759a5.863 5.863 0 0 1-5.862 5.863zm-43.891-11.725h38.027V391.241h-38.027v109.034z"/><path class="st0" d="M265.638 391.241h-24.877a5.865 5.865 0 0 1-5.306-3.367l-12.438-26.445a5.861 5.861 0 0 1-.558-2.495V338.37a5.863 5.863 0 0 1 5.862-5.862h49.754a5.863 5.863 0 0 1 5.862 5.862v20.563c0 .863-.191 1.715-.558 2.495l-12.438 26.445a5.856 5.856 0 0 1-5.303 3.368zm-21.155-11.725h17.434l10.297-21.892v-13.391h-38.027v13.391l10.296 21.892zM278.077 481.291h-49.754a5.863 5.863 0 0 1 0-11.725h49.754a5.863 5.863 0 0 1 0 11.725z"/><path class="st0" d="M253.2 344.233a5.863 5.863 0 0 1-5.863-5.863v-34.053c0-1.969.988-3.805 2.63-4.891L478.682 148.23V72.422h-37.457a5.863 5.863 0 0 1 0-11.725h43.319a5.862 5.862 0 0 1 5.862 5.862v84.823a5.864 5.864 0 0 1-2.629 4.891L259.062 307.469v30.901a5.863 5.863 0 0 1-5.862 5.863z"/></svg>